# xmcd
#
# Track frame offsets: 
#        150
#        27792
#        48800
#        74020
#
# Disc length: 1191 seconds
#
# Revision: 0
# Processed by: cddbd v1.5.2PL0 Copyright (c) Steve Scherf et al.
# Submitted via: ExactAudioCopy v0.99pb5
#
DISCID=2e04a504
DTITLE=Shee - Do You Love Me
DYEAR=1995
DGENRE=Trance
TTITLE0=Do You Love Me (RMB Remix)
TTITLE1=Do You Love Me (Sequential One Remix)
TTITLE2=Do You Love Me (Da Casa Di Tokapi House Remix)
TTITLE3=Do You Love Me (Original Radio Pop Mix)
EXTD=
EXTT0=
EXTT1=
EXTT2=
EXTT3=
PLAYORDER=
